<svg xmlns="http://www.w3.org/2000/svg" viewBox="0 0 512 512" width="512" height="512">
  <defs>
    <linearGradient id="page" x1="0" y1="0" x2="0" y2="1">
      <stop offset="0" stop-color="#FFFFFF"></stop>
      <stop offset="1" stop-color="#FAF7F2"></stop>
    </linearGradient>
    <linearGradient id="fold" x1="0" y1="0" x2="1" y2="1">
      <stop offset="0" stop-color="#FFF7EF"></stop>
      <stop offset="1" stop-color="#EFE4D6"></stop>
    </linearGradient>
    <filter id="pageShadow" x="-30%" y="-30%" width="160%" height="160%">
      <feDropShadow dx="0" dy="10" stdDeviation="14" flood-color="#1C1917" flood-opacity="0.18"></feDropShadow>
    </filter>
  </defs>
  <g filter="url(#pageShadow)">
    <path d="M120 24 H306 L416 134 V464 Q416 488 392 488 H120 Q96 488 96 464 V48 Q96 24 120 24 Z" fill="url(#page)" stroke="#E7DFD3" stroke-width="2"></path>
    <path d="M306 24 L416 134 H330 Q306 134 306 110 Z" fill="url(#fold)" stroke="#E7DFD3" stroke-width="2" stroke-linejoin="round"></path>
  </g>
  
  <g transform="translate(133,196) scale(1.18)">
    <rect x="5" y="5" width="198" height="118" rx="14" fill="none" stroke="#1C1917" stroke-width="11"></rect>
    <path d="M30 98V30h20l20 25 20-25h20v68H90V59L70 84 50 59v39zm125 0l-30-33h20V30h20v35h20z" fill="#1C1917"></path>
  </g>
</svg>